<svg width="208" height="208" viewBox="0 0 208 208" fill="none" xmlns="http://www.w3.org/2000/svg">
<path d="M156 112.667H112.667V156C112.667 160.767 108.767 164.667 104 164.667C99.2333 164.667 95.3333 160.767 95.3333 156V112.667H52C47.2333 112.667 43.3333 108.767 43.3333 104C43.3333 99.2334 47.2333 95.3334 52 95.3334H95.3333V52C95.3333 47.2334 99.2333 43.3334 104 43.3334C108.767 43.3334 112.667 47.2334 112.667 52V95.3334H156C160.767 95.3334 164.667 99.2334 164.667 104C164.667 108.767 160.767 112.667 156 112.667Z" fill="white"/>
</svg>
