<svg width="503" height="344" viewBox="0 0 503 344" fill="none" xmlns="http://www.w3.org/2000/svg">
<path d="M156.242 88.043L180.559 136.969L203.215 88.043H260.441L183.781 243.805C182.089 246.995 179.126 248.59 174.895 248.59C170.728 248.59 167.831 246.995 166.203 243.805L85.4414 88.043H156.242Z" fill="#B94F25"/>
<path d="M331.047 247.809C301.815 247.809 282.414 244.195 272.844 236.969V192.242C273.104 192.307 274.048 192.6 275.676 193.121C277.368 193.642 279.484 194.293 282.023 195.074C287.948 196.897 294.165 198.622 300.676 200.25C307.251 201.812 312.525 202.594 316.496 202.594C323.007 202.594 326.262 200.608 326.262 196.637C326.262 193.577 323.462 190.322 317.863 186.871C315.324 185.309 312.427 183.681 309.172 181.988C305.982 180.296 302.727 178.408 299.406 176.324C291.268 171.311 284.725 165.452 279.777 158.746C274.895 152.04 272.453 143.577 272.453 133.355C272.453 111.025 284.237 96.0182 307.805 88.3359C317.375 85.2109 328.41 83.6484 340.91 83.6484C353.475 83.6484 366.594 85.0807 380.266 87.9453C383.065 88.5312 384.921 88.9544 385.832 89.2148V134.039C368.124 130.263 355.396 128.375 347.648 128.375C344.654 128.375 342.408 128.896 340.91 129.938C339.413 130.979 338.664 132.151 338.664 133.453C338.664 134.755 339.315 136.122 340.617 137.555C341.919 138.922 344.165 140.322 347.355 141.754C350.546 143.121 354.257 144.814 358.488 146.832C362.785 148.785 366.789 150.901 370.5 153.18C387.167 163.401 395.5 177.366 395.5 195.074C395.5 211.871 389.836 224.859 378.508 234.039C367.049 243.154 351.229 247.743 331.047 247.809Z" fill="#2F2C46"/>
<path d="M145.242 82.043L169.559 130.969L192.215 82.043H249.441L172.781 237.805C171.089 240.995 168.126 242.59 163.895 242.59C159.728 242.59 156.831 240.995 155.203 237.805L74.4414 82.043H145.242ZM320.047 241.809C290.815 241.809 271.414 238.195 261.844 230.969V186.242C262.104 186.307 263.048 186.6 264.676 187.121C266.368 187.642 268.484 188.293 271.023 189.074C276.948 190.897 283.165 192.622 289.676 194.25C296.251 195.812 301.525 196.594 305.496 196.594C312.007 196.594 315.262 194.608 315.262 190.637C315.262 187.577 312.462 184.322 306.863 180.871C304.324 179.309 301.427 177.681 298.172 175.988C294.982 174.296 291.727 172.408 288.406 170.324C280.268 165.311 273.725 159.452 268.777 152.746C263.895 146.04 261.453 137.577 261.453 127.355C261.453 105.025 273.237 90.0182 296.805 82.3359C306.375 79.2109 317.41 77.6484 329.91 77.6484C342.475 77.6484 355.594 79.0807 369.266 81.9453C372.065 82.5312 373.921 82.9544 374.832 83.2148V128.039C357.124 124.263 344.396 122.375 336.648 122.375C333.654 122.375 331.408 122.896 329.91 123.938C328.413 124.979 327.664 126.151 327.664 127.453C327.664 128.755 328.315 130.122 329.617 131.555C330.919 132.922 333.165 134.322 336.355 135.754C339.546 137.121 343.257 138.814 347.488 140.832C351.785 142.785 355.789 144.901 359.5 147.18C376.167 157.401 384.5 171.366 384.5 189.074C384.5 205.871 378.836 218.859 367.508 228.039C356.049 237.154 340.229 241.743 320.047 241.809Z" fill="white"/>
<rect x="341" y="46" width="50" height="12" rx="6" fill="#2F2C46"/>
<rect x="143" y="46" width="80" height="12" rx="6" fill="#B94F25"/>
<rect x="48" y="120" width="32" height="12" rx="6" fill="#B94F25"/>
<rect x="9" y="77" width="55" height="12" rx="6" fill="#B94F25"/>
<rect y="163" width="72" height="12" rx="6" fill="#B94F25"/>
<rect x="52" y="206" width="69" height="12" rx="6" fill="#B94F25"/>
<rect x="90" y="248" width="53" height="12" rx="6" fill="#B94F25"/>
<rect x="14" y="248" width="50" height="12" rx="6" fill="#B94F25"/>
<rect x="143" y="291" width="48" height="12" rx="6" fill="#B94F25"/>
<rect x="409" y="77" width="34" height="12" rx="6" fill="#2F2C46"/>
<rect x="429" y="120" width="68" height="12" rx="6" fill="#2F2C46"/>
<rect x="398" y="163" width="51" height="12" rx="6" fill="#2F2C46"/>
<rect x="270" y="291" width="73" height="12" rx="6" fill="#2F2C46"/>
<rect x="418" y="206" width="53" height="12" rx="6" fill="#2F2C46"/>
<rect x="376" y="248" width="73" height="12" rx="6" fill="#2F2C46"/>
<rect x="227" y="248" width="52" height="12" rx="6" fill="#2F2C46"/>
<rect x="480" y="163" width="23" height="12" rx="6" fill="#2F2C46"/>
</svg>
